<svg width="22" height="19" viewBox="0 0 22 19" fill="none" xmlns="http://www.w3.org/2000/svg">
<path d="M8 1.96004C8.97019 1.65248 9.98223 1.4973 11 1.50004C15.182 1.50004 18.028 4.00004 19.725 6.20404C20.575 7.31004 21 7.86103 21 9.50003C21 11.14 20.575 11.691 19.725 12.796C18.028 15 15.182 17.5 11 17.5C6.818 17.5 3.972 15 2.275 12.796C1.425 11.692 1 11.139 1 9.50003C1 7.86003 1.425 7.30904 2.275 6.20404C2.79336 5.52674 3.37061 4.89662 4 4.32104" stroke="#160F29" stroke-opacity="0.5" stroke-width="2" stroke-linecap="round"/>
<path d="M14 9.5C14 10.2956 13.6839 11.0587 13.1213 11.6213C12.5587 12.1839 11.7956 12.5 11 12.5C10.2044 12.5 9.44129 12.1839 8.87868 11.6213C8.31607 11.0587 8 10.2956 8 9.5C8 8.70435 8.31607 7.94129 8.87868 7.37868C9.44129 6.81607 10.2044 6.5 11 6.5C11.7956 6.5 12.5587 6.81607 13.1213 7.37868C13.6839 7.94129 14 8.70435 14 9.5Z" stroke="#160F29" stroke-opacity="0.5" stroke-width="2"/>
</svg>
